<svg width="26" height="31" viewBox="0 0 26 31" fill="none" xmlns="http://www.w3.org/2000/svg">
<path d="M10.3926 25.0775C10.4135 22.2586 8.34122 19.958 5.76396 19.9388C3.18669 19.9197 1.08043 22.1893 1.05948 25.0081C1.03853 27.827 3.11082 30.1277 5.68808 30.1469C8.26535 30.166 10.3716 27.8964 10.3926 25.0775Z" stroke="#FFD500" stroke-width="1.2" stroke-linecap="round" stroke-linejoin="round"/>
<path d="M25.0588 25.1865C25.0798 22.3676 23.0075 20.067 20.4302 20.0478C17.853 20.0287 15.7467 22.2983 15.7257 25.1172C15.7048 27.936 17.7771 30.2367 20.3543 30.2559C22.9316 30.275 25.0379 28.0054 25.0588 25.1865Z" stroke="#FFD500" stroke-width="1.2" stroke-linecap="round" stroke-linejoin="round"/>
<path d="M5.23821 0.976043L18.3998 20.5432" stroke="#FFD500" stroke-width="1.2" stroke-linecap="round" stroke-linejoin="round"/>
<path d="M21.1978 1.09467L7.7334 20.4639" stroke="#FFD500" stroke-width="1.2" stroke-linecap="round" stroke-linejoin="round"/>
</svg>
